<svg enable-background="new 0 0 412.58 113.64" viewBox="0 0 412.58 113.64" xmlns="http://www.w3.org/2000/svg"><g fill="#2f3155"><path d="m30.96 22.15c-18.51 0-30.96 12.93-30.96 32.17 0 19.07 12.73 32.37 30.96 32.37 14.26 0 25.29-7.83 28.82-20.43l.46-1.63h-13.34l-.3.87c-2.19 6.48-7.89 10.19-15.64 10.19-9.94 0-16.93-6.34-18.09-16.26h47.71l.12-1.15c.24-2.31.35-4.09.35-6.16-.01-17.64-12.38-29.97-30.09-29.97zm-17.94 26.61c1.44-9.53 8.17-15.6 17.5-15.6 5.3 0 10 1.78 13.2 5.02 2.68 2.72 4.21 6.35 4.43 10.59h-35.13z"/><path d="m101.11 24.45v10.78h-12.6v51.52h-12.52v-51.52h-7.78v-10.78h7.78v-3.26c0-14.09 7.37-20.66 23.19-20.66h1.28v10.88h-1.28c-7.97 0-10.66 2.46-10.66 9.78v3.26z"/><path d="m139.65 24.45v10.78h-12.59v51.52h-12.54v-51.52h-7.78v-10.78h7.78v-3.26c0-14.09 7.37-20.66 23.19-20.66h1.28v10.88h-1.28c-7.97 0-10.65 2.46-10.65 9.78v3.26z"/><path d="m151.21 24.63h12.52v62.12h-12.52z"/><path d="m227.75.25v32.04c-4.95-5.62-12.78-9.1-20.95-9.1-17.58 0-29.86 13.18-29.86 32.05 0 18.82 12.51 32.49 29.76 32.49 8.67 0 16.26-3.43 21.06-9.33v8.34h12.64v-86.49zm-19.09 77.44c-10.95 0-20.25-8.31-20.25-22.44s9.3-22.12 20.25-22.12c10.96 0 20.38 8.33 20.38 22.24-.01 14.1-9.42 22.32-20.38 22.32z"/><path d="m257.2 24.63h12.52v62.12h-12.52z"/><path d="m342.8 64.91-.41 1.6c-3.41 13.29-14.23 21.22-28.95 21.22-18.25 0-30.51-13.01-30.51-32.37 0-19.23 12.27-32.17 30.51-32.17 15.12 0 25.66 7.74 28.95 21.24l.38 1.59h-13.32l-.27-.92c-1.99-6.93-7.74-10.91-15.74-10.91-10.96 0-17.77 8.11-17.77 21.17 0 13.19 6.81 21.38 17.77 21.38 8.23 0 13.68-3.77 15.74-10.91l.27-.92z"/></g><g fill="#ea6e61"><path d="m165.27 7.97c0 4.29-3.27 7.65-7.44 7.65-4.29 0-7.65-3.36-7.65-7.65s3.36-7.65 7.65-7.65c4.17 0 7.44 3.37 7.44 7.65z"/><path d="m271.01 7.97c0 4.29-3.27 7.65-7.44 7.65-4.29 0-7.65-3.36-7.65-7.65s3.36-7.65 7.65-7.65c4.17 0 7.44 3.37 7.44 7.65z"/><path d="m387.12 11.39c-1.24 1.24-2.85 1.89-4.48 1.96-.17-.02-.34-.02-.51 0-.12 0-.24-.01-.36-.03h-.03c-1.45.07-2.88.41-4.24 1-1.35.59-2.63 1.44-3.74 2.55-2.22 2.22-3.41 5.09-3.54 8l-.01.01c.02.18.03.37.04.55v.07c-.01 1.71-.65 3.41-1.96 4.72-2.61 2.61-6.83 2.61-9.45 0-2.61-2.61-2.61-6.83 0-9.44 1.47-1.46 3.44-2.1 5.34-1.92l.01-.01c2.9-.15 5.75-1.34 7.96-3.55 2.21-2.2 3.43-5.09 3.59-7.97v-.03c-.18-1.91.46-3.88 1.93-5.35 2.61-2.61 6.83-2.61 9.44 0 2.61 2.62 2.61 6.84.01 9.44z"/><path d="m410.63 34.9c-1.24 1.24-2.85 1.89-4.48 1.96-.17-.02-.34-.02-.51 0-.12 0-.24-.01-.36-.03h-.03c-1.45.07-2.88.41-4.24 1-1.35.59-2.63 1.44-3.74 2.55-2.22 2.22-3.41 5.09-3.54 8l-.01.01c.02.18.03.37.04.55v.07c-.01 1.71-.65 3.41-1.96 4.72-2.61 2.61-6.83 2.61-9.45 0-2.61-2.61-2.61-6.83 0-9.44 1.47-1.46 3.44-2.1 5.34-1.92l.01-.01c2.9-.15 5.75-1.34 7.96-3.55 2.21-2.2 3.43-5.09 3.59-7.97v-.03c-.18-1.91.46-3.88 1.93-5.35 2.61-2.61 6.83-2.61 9.44 0s2.61 6.84.01 9.44z"/><path d="m389.44 32.57c-1.24 1.24-2.85 1.89-4.48 1.96-.17-.02-.34-.02-.51 0-.12 0-.24-.01-.36-.03h-.03c-1.45.07-2.88.41-4.24 1-1.35.59-2.63 1.44-3.74 2.55-2.22 2.22-3.41 5.09-3.54 8l-.01.01c.02.18.03.37.04.55v.07c-.01 1.71-.65 3.41-1.96 4.72-2.61 2.61-6.83 2.61-9.45 0-2.61-2.61-2.61-6.83 0-9.44 1.47-1.46 3.44-2.1 5.34-1.92l.01-.01c2.9-.15 5.75-1.34 7.96-3.55 2.21-2.2 3.43-5.09 3.59-7.97v-.03c-.18-1.91.46-3.88 1.93-5.35 2.61-2.61 6.83-2.61 9.44 0 2.62 2.61 2.62 6.83.01 9.44z"/><path d="m214.95 113.64h6.98v-2.11h-4.52v-3.01h4.02v-2.11h-4.02v-2.86h4.52v-2.11h-6.98z"/><path d="m232.35 101.46-2.33 3.99-2.48-3.99h-2.79l3.8 6.1-3.78 6.08h2.78l2.31-3.96 2.46 3.96h2.79l-3.78-6.08 3.8-6.1z"/><path d="m244.78 101.95c-.65-.32-1.46-.49-2.39-.49h-4.29v12.17h2.46v-4.72h1.83c1 0 1.84-.18 2.49-.53.66-.35 1.15-.82 1.45-1.39.3-.56.45-1.17.45-1.8 0-.69-.17-1.33-.5-1.89-.33-.57-.84-1.02-1.5-1.35zm-2.39 4.86h-1.83v-3.25h1.83c1.28 0 1.88.52 1.88 1.63 0 .53-.15.92-.45 1.19-.3.29-.78.43-1.43.43z"/><path d="m249.72 113.64h6.98v-2.11h-4.52v-3.01h4.02v-2.11h-4.02v-2.86h4.52v-2.11h-6.98z"/><path d="m268.13 107.44c.47-.66.71-1.41.71-2.23 0-.69-.17-1.33-.5-1.89-.33-.57-.84-1.03-1.5-1.36-.65-.33-1.46-.5-2.39-.5h-4.29v12.17h2.46v-4.65h1.02l2.68 4.65h2.92l-2.94-4.92c.79-.26 1.41-.68 1.83-1.27zm-5.51-3.87h1.83c.65 0 1.13.15 1.43.43.3.29.45.69.45 1.21 0 .53-.15.94-.46 1.24s-.79.46-1.42.46h-1.83z"/><path d="m271.8 103.57h3.11v10.07h2.46v-10.07h3.09v-2.11h-8.66z"/><path d="m303 102.2c-.97-.49-2.1-.74-3.38-.74h-4.07v12.17h4.07c1.28 0 2.41-.24 3.38-.72s1.74-1.19 2.27-2.11c.53-.91.8-1.99.8-3.22 0-1.22-.27-2.31-.8-3.24-.53-.92-1.3-1.64-2.27-2.14zm-4.99 1.37h1.61c1.28 0 2.26.35 2.93 1.05s1.01 1.7 1.01 2.97c0 1.26-.34 2.24-1.01 2.92s-1.65 1.02-2.93 1.02h-1.61z"/><path d="m312.64 101.44-4.36 12.19h2.58l.84-2.38h4.48l.84 2.38h2.59l-4.36-12.19zm2.8 7.71h-3.02l1.52-4.3z"/><path d="m321.81 103.57h3.11v10.07h2.46v-10.07h3.09v-2.11h-8.66z"/><path d="m339.67 101.44h-2.59l-4.36 12.19h2.58l.84-2.38h4.48l.84 2.38h2.59zm.21 7.71h-3.02l1.52-4.3z"/><path d="m3.67 107.38h194.19"/><path d="m3.67 106.13h194.19v2.5h-194.19z"/></g></svg>